<svg id="svg" version="1.1" xmlns="http://www.w3.org/2000/svg" xmlns:xlink="http://www.w3.org/1999/xlink" width="400" height="82.5938566552901" viewBox="0, 0, 400,82.5938566552901"><g id="svgg"><path id="path0" d="M0.000 41.250 L 0.000 82.500 200.000 82.500 L 400.000 82.500 400.000 41.250 L 400.000 0.000 200.000 0.000 L 0.000 0.000 0.000 41.250 M391.417 0.565 C 395.569 1.479,398.394 4.277,399.430 8.500 C 399.729 9.718,399.778 72.439,399.482 73.862 C 398.687 77.674,395.598 80.974,391.968 81.889 C 390.419 82.279,9.706 82.226,8.136 81.836 C 4.316 80.885,1.552 78.023,0.569 74.000 C 0.278 72.809,0.222 10.238,0.511 8.800 C 1.340 4.668,4.408 1.510,8.500 0.577 C 9.893 0.259,389.974 0.248,391.417 0.565 M42.410 21.062 C 40.054 21.938,38.284 24.087,37.737 26.735 C 37.450 28.125,37.453 28.185,38.171 35.500 C 38.397 37.811,38.359 40.498,38.084 41.553 C 36.646 47.075,30.065 49.810,25.500 46.782 C 22.193 44.588,20.747 38.337,22.628 34.367 C 24.927 29.517,31.660 28.883,33.609 33.333 C 34.097 34.446,34.167 34.769,34.167 35.911 C 34.167 38.419,32.275 41.000,30.436 41.000 C 29.845 41.000,29.888 41.270,30.542 41.668 C 33.522 43.486,36.839 37.643,35.193 33.475 C 33.084 28.130,24.796 28.368,22.125 33.850 C 18.001 42.315,24.912 51.497,33.293 48.689 C 39.847 46.493,41.727 42.274,40.351 32.843 C 39.822 29.215,39.922 26.960,40.690 25.210 C 40.860 24.822,41.000 24.436,41.000 24.353 C 41.000 24.048,42.566 22.473,43.183 22.158 C 46.506 20.463,48.268 25.224,45.406 28.167 C 43.995 29.618,43.698 30.693,44.578 31.164 C 45.415 31.612,46.582 30.541,47.027 28.917 C 47.128 28.550,47.362 27.800,47.549 27.250 C 48.859 23.383,45.864 19.777,42.410 21.062 M284.323 21.899 C 277.645 24.215,271.333 32.927,271.333 39.831 C 271.333 43.680,273.450 46.781,276.750 47.768 C 280.422 48.865,283.770 47.526,287.125 43.619 C 287.749 42.893,287.869 43.203,287.474 44.522 C 286.874 46.522,288.930 48.137,290.837 47.165 C 291.598 46.776,293.296 45.167,294.424 43.764 L 295.083 42.945 295.189 44.112 C 295.513 47.699,299.153 49.015,302.833 46.877 C 303.567 46.450,304.539 45.544,305.963 43.958 C 306.858 42.961,306.833 42.951,306.833 44.298 C 306.833 48.128,310.226 48.834,313.441 45.673 C 314.650 44.484,314.597 44.500,314.727 45.292 C 315.185 48.087,317.439 48.215,320.148 45.600 C 320.917 44.857,321.506 44.362,321.458 44.500 C 321.164 45.335,320.763 46.272,320.642 46.408 C 320.059 47.060,320.759 47.667,322.096 47.667 C 322.988 47.667,323.160 47.495,323.854 45.912 C 324.797 43.762,326.749 39.834,326.875 39.834 C 326.944 39.833,327.000 39.753,327.000 39.655 C 327.000 38.961,329.518 36.287,330.738 35.685 C 333.394 34.376,334.245 35.501,332.740 38.333 C 329.621 44.205,329.250 45.535,330.383 46.771 C 331.868 48.392,333.951 47.498,337.230 43.833 C 338.102 42.859,338.189 42.800,338.095 43.250 C 337.174 47.628,339.815 48.964,343.064 45.763 C 344.338 44.507,344.541 44.470,344.015 45.589 C 343.219 47.283,343.413 47.667,345.065 47.667 C 345.984 47.667,346.271 47.347,347.083 45.417 C 347.672 44.017,349.273 40.771,349.978 39.545 C 351.388 37.095,353.503 35.380,355.333 35.204 C 356.890 35.055,356.947 36.379,355.492 38.848 C 352.126 44.556,351.980 47.422,355.055 47.414 C 356.674 47.410,357.858 46.574,360.353 43.676 L 361.277 42.602 361.202 44.040 C 360.997 47.930,364.237 48.985,367.424 46.066 C 368.284 45.278,368.317 45.456,367.554 46.783 C 367.196 47.407,366.653 48.416,366.347 49.027 C 365.745 50.230,365.437 50.416,363.083 51.000 C 361.546 51.381,359.644 52.001,358.730 52.419 C 358.231 52.647,357.779 52.833,357.724 52.833 C 357.165 52.833,354.766 54.864,354.210 55.808 C 352.486 58.732,354.333 61.392,358.083 61.388 C 361.860 61.384,363.239 59.981,367.636 51.667 C 368.347 50.323,368.583 50.024,369.195 49.688 C 371.923 48.192,375.274 45.285,376.806 43.083 C 377.189 42.533,377.883 41.534,378.348 40.863 C 379.793 38.777,379.249 38.578,377.715 40.633 C 374.812 44.523,373.111 46.244,370.304 48.134 C 368.931 49.059,368.808 49.393,372.412 42.417 C 373.217 40.858,374.269 38.908,374.749 38.083 C 377.010 34.202,377.038 34.000,375.310 34.000 C 374.191 34.000,373.974 34.147,373.238 35.404 C 372.600 36.496,372.333 36.645,372.333 35.909 C 372.333 34.341,369.590 33.848,367.250 34.996 C 365.811 35.702,364.177 37.297,362.713 39.422 C 360.919 42.030,358.277 45.068,357.270 45.682 C 355.621 46.687,355.159 44.752,356.452 42.257 C 356.596 41.978,356.786 41.608,356.873 41.435 C 356.960 41.263,357.162 40.888,357.322 40.602 C 357.986 39.416,358.667 37.330,358.667 36.483 C 358.667 34.247,355.575 33.523,353.148 35.191 C 352.586 35.577,352.471 35.444,352.763 34.745 C 353.064 34.024,352.643 33.667,351.494 33.667 C 350.394 33.667,350.278 33.813,347.623 38.556 C 346.018 41.422,342.539 45.694,341.623 45.922 C 340.685 46.156,340.232 45.294,340.583 43.945 C 340.878 42.813,343.417 37.778,344.505 36.167 C 345.465 34.746,345.398 34.247,344.223 34.071 C 342.886 33.870,342.324 34.484,340.199 38.463 C 338.684 41.301,334.576 46.000,333.611 46.000 C 332.290 46.000,332.408 44.507,333.982 41.278 C 335.677 37.801,335.988 36.744,335.593 35.798 C 334.903 34.148,332.901 33.802,330.631 34.939 C 329.587 35.463,329.472 35.441,329.752 34.770 C 330.056 34.044,329.707 33.666,328.737 33.669 C 327.339 33.674,327.503 33.487,325.005 37.917 C 322.645 42.100,319.202 46.124,318.115 45.968 C 316.601 45.752,317.380 43.322,320.984 37.014 C 322.328 34.663,322.379 34.440,321.642 34.183 C 320.389 33.746,319.795 34.032,318.819 35.542 L 318.174 36.541 318.000 36.062 C 317.489 34.653,317.091 34.403,315.440 34.450 C 312.848 34.524,310.668 36.099,308.334 39.583 C 307.521 40.796,306.683 41.942,306.250 42.430 C 306.158 42.533,305.789 42.985,305.429 43.434 C 301.884 47.853,297.134 48.217,297.582 44.035 C 297.788 42.117,298.286 41.350,298.855 42.074 C 299.914 43.420,302.153 43.263,304.124 41.705 C 306.570 39.772,307.364 35.547,305.467 34.566 C 303.078 33.331,299.453 35.443,296.430 39.833 C 292.970 44.858,291.116 46.624,290.276 45.695 C 289.568 44.913,290.145 43.160,292.533 38.833 C 292.761 38.421,293.271 37.483,293.667 36.750 C 294.062 36.017,294.570 35.080,294.795 34.669 C 295.020 34.258,295.542 33.283,295.956 32.502 C 296.370 31.722,296.914 30.708,297.165 30.250 C 297.417 29.792,297.895 28.910,298.228 28.292 C 299.728 25.504,300.056 24.906,300.175 24.750 C 301.545 22.945,301.425 22.167,299.775 22.167 C 298.552 22.167,298.714 21.951,295.087 28.417 C 293.238 31.714,292.510 33.075,290.811 36.415 C 285.619 46.620,278.811 50.084,275.192 44.362 C 270.831 37.466,279.391 22.889,287.871 22.772 C 291.085 22.728,291.635 25.435,289.000 28.333 C 287.775 29.681,287.401 30.711,287.941 31.250 C 288.947 32.257,290.661 29.775,291.595 25.959 C 292.395 22.690,288.428 20.475,284.323 21.899 M66.901 23.340 C 66.483 23.986,65.934 24.904,65.680 25.382 C 65.426 25.859,65.046 26.550,64.836 26.917 C 64.384 27.704,63.914 28.547,63.167 29.917 C 61.952 32.140,61.793 32.423,61.668 32.583 C 61.596 32.675,60.734 34.344,59.751 36.293 C 58.080 39.609,57.899 39.893,56.941 40.733 C 54.596 42.785,53.342 42.892,54.245 40.963 C 58.016 32.912,49.468 30.951,44.962 38.833 C 43.292 41.754,42.837 43.280,43.169 44.845 C 44.031 48.906,48.747 48.520,52.260 44.101 L 53.366 42.710 54.260 42.702 C 54.913 42.696,55.421 42.559,56.140 42.193 L 57.126 41.693 56.995 42.221 C 56.924 42.512,56.746 43.125,56.601 43.583 C 55.891 45.824,56.739 47.500,58.585 47.500 C 59.711 47.500,62.167 45.431,63.861 43.056 C 64.842 41.681,65.117 41.865,64.679 43.603 C 64.322 45.021,65.008 46.757,66.228 47.523 C 67.874 48.556,70.982 46.734,73.801 43.083 C 75.262 41.191,75.410 41.069,75.878 41.376 C 76.468 41.763,77.361 41.887,78.093 41.685 C 78.937 41.452,78.955 41.496,78.521 42.726 C 77.904 44.474,77.972 46.050,78.696 46.774 C 80.174 48.252,82.173 47.332,85.056 43.845 C 85.739 43.019,85.858 43.222,85.483 44.573 C 84.908 46.641,87.008 48.151,88.972 47.082 C 89.809 46.627,91.657 44.847,92.593 43.595 L 93.083 42.939 93.174 44.345 C 93.436 48.403,96.940 48.881,100.145 45.295 C 100.804 44.558,101.000 44.511,101.000 45.090 C 101.000 46.782,102.884 47.959,104.435 47.235 C 105.525 46.727,107.972 44.116,109.889 41.417 C 111.977 38.477,112.147 38.252,112.214 38.346 C 112.241 38.385,112.359 38.792,112.475 39.250 C 112.754 40.353,113.253 41.164,114.565 42.642 C 117.080 45.479,115.553 48.115,111.813 47.391 C 111.414 47.314,110.928 46.952,110.145 46.149 C 109.537 45.525,108.994 45.062,108.937 45.119 C 108.625 45.431,108.907 46.021,109.748 46.817 C 112.104 49.045,115.099 48.797,118.489 46.092 C 120.495 44.492,123.833 40.667,123.833 39.969 C 123.833 39.506,123.494 39.668,123.000 40.367 C 121.029 43.159,117.335 46.640,117.758 45.308 C 118.109 44.201,117.607 42.640,116.352 40.943 C 114.268 38.121,114.105 35.851,115.932 35.088 C 118.211 34.135,120.270 36.241,119.067 38.294 C 118.636 39.029,118.685 39.446,119.180 39.252 C 119.564 39.102,120.145 38.077,120.187 37.475 C 120.265 36.376,120.157 36.036,119.497 35.286 C 117.503 33.021,114.395 33.813,112.116 37.167 C 108.249 42.858,105.418 46.107,104.449 45.968 C 103.073 45.772,103.796 43.068,106.444 38.500 C 108.713 34.587,108.759 34.456,107.975 34.183 C 106.750 33.756,106.126 34.023,105.272 35.342 C 104.666 36.277,104.333 36.564,104.333 36.150 C 104.333 35.005,103.045 34.239,101.424 34.422 C 99.121 34.682,96.837 36.338,94.997 39.083 C 92.223 43.223,89.754 46.000,88.846 46.000 C 87.098 46.000,88.160 42.870,92.490 35.260 C 92.695 34.898,93.050 34.247,93.277 33.812 C 93.852 32.713,93.907 32.686,95.676 32.632 C 97.897 32.563,97.967 32.124,95.776 32.000 L 94.302 31.917 94.919 30.750 C 97.032 26.754,97.460 25.968,98.090 24.917 C 99.609 22.382,99.572 22.104,97.727 22.199 L 96.750 22.250 95.986 23.417 C 95.565 24.058,94.997 24.996,94.722 25.500 C 94.448 26.004,93.524 27.670,92.669 29.202 L 91.114 31.988 89.684 32.036 C 87.730 32.101,87.380 32.667,89.293 32.667 C 89.926 32.667,90.481 32.703,90.525 32.747 C 90.735 32.957,86.949 40.081,85.853 41.539 C 82.726 45.700,81.714 46.547,80.919 45.669 C 80.144 44.813,80.979 42.670,84.477 36.536 C 85.489 34.760,85.547 34.502,85.000 34.220 C 83.468 33.429,82.582 34.260,80.355 38.571 C 79.980 39.297,79.478 40.095,79.239 40.345 C 77.873 41.770,75.410 41.039,76.479 39.526 C 78.274 36.986,78.783 34.290,77.557 33.823 C 75.249 32.946,72.539 37.772,74.086 40.005 C 74.665 40.839,74.625 40.943,72.943 42.948 C 70.127 46.303,68.129 47.430,67.161 46.208 C 66.414 45.266,67.329 41.704,69.600 36.703 C 70.041 35.732,70.123 34.643,69.776 34.355 C 68.986 33.699,67.506 34.038,67.121 34.964 C 66.688 36.006,66.198 37.359,65.814 38.579 C 64.938 41.354,60.432 46.421,59.353 45.844 C 58.203 45.228,58.611 44.120,63.008 35.917 C 63.254 35.458,63.774 34.483,64.164 33.750 C 64.555 33.017,64.930 32.342,64.998 32.250 C 65.067 32.158,65.670 31.033,66.339 29.750 C 67.007 28.467,68.090 26.479,68.744 25.333 C 70.478 22.297,70.474 22.167,68.651 22.167 L 67.660 22.167 66.901 23.340 M219.275 22.708 C 219.050 23.006,218.456 24.000,217.956 24.917 C 217.456 25.833,216.800 26.996,216.500 27.500 C 216.199 28.004,215.675 28.942,215.334 29.583 C 214.993 30.225,214.329 31.410,213.857 32.216 C 213.386 33.022,213.000 33.723,213.000 33.774 C 213.000 33.824,212.859 34.064,212.686 34.308 C 212.357 34.772,212.268 34.924,210.545 38.000 C 209.462 39.934,208.917 40.721,207.087 42.998 C 204.259 46.517,201.166 47.922,199.539 46.428 L 198.917 45.857 198.939 44.387 C 198.973 42.106,199.418 41.285,200.179 42.099 C 201.524 43.539,204.016 43.199,205.838 41.328 C 208.074 39.033,208.530 35.439,206.696 34.569 C 204.347 33.454,200.461 35.643,198.050 39.438 C 195.752 43.056,191.669 46.990,192.309 44.970 C 192.566 44.157,191.905 42.112,191.125 41.309 C 188.432 38.537,188.665 34.831,191.533 34.834 C 193.410 34.836,194.573 37.014,193.483 38.487 C 192.892 39.286,193.337 39.623,194.003 38.882 C 196.089 36.559,193.388 33.269,190.136 34.172 C 188.711 34.568,187.739 35.508,185.659 38.500 C 181.171 44.957,179.269 46.832,178.426 45.630 C 177.761 44.680,178.396 43.046,181.743 37.098 C 183.202 34.506,183.215 34.346,181.984 34.109 C 180.435 33.811,179.511 35.093,176.240 42.083 C 174.058 46.744,169.309 47.857,170.874 43.341 C 171.169 42.492,173.310 38.385,174.685 36.031 C 175.504 34.629,175.507 34.397,174.708 34.175 C 173.095 33.727,172.466 34.318,170.578 38.057 C 168.891 41.398,164.485 44.160,165.911 40.983 C 169.187 33.683,162.582 30.836,157.608 37.405 C 155.543 40.132,154.425 43.367,154.937 45.130 C 156.120 49.197,161.502 48.110,164.689 43.160 C 164.924 42.795,165.091 42.733,165.889 42.714 C 166.514 42.700,167.090 42.555,167.654 42.272 C 168.672 41.761,168.732 41.832,168.322 43.075 C 166.817 47.638,170.874 49.150,174.731 45.463 C 175.345 44.876,175.537 44.933,175.708 45.754 C 175.922 46.785,176.828 47.500,177.920 47.500 C 179.347 47.500,181.399 45.579,184.240 41.583 C 184.371 41.400,184.942 40.595,185.509 39.795 C 186.622 38.226,186.748 38.167,186.911 39.136 C 187.053 39.972,187.789 41.202,188.825 42.333 C 191.574 45.335,190.173 48.154,186.313 47.389 C 185.929 47.312,185.414 46.942,184.693 46.222 C 183.538 45.069,183.333 44.969,183.333 45.558 C 183.333 46.085,185.049 47.711,185.919 48.008 C 188.734 48.971,191.848 47.614,195.295 43.923 C 195.958 43.214,196.502 42.697,196.504 42.775 C 196.544 44.382,196.667 45.347,196.880 45.751 C 198.464 48.740,202.634 48.581,205.886 45.408 C 207.082 44.241,207.318 44.134,206.936 44.931 C 206.808 45.198,206.570 45.717,206.407 46.083 C 206.244 46.450,206.083 46.804,206.049 46.869 C 205.864 47.227,206.704 47.667,207.572 47.667 C 208.532 47.667,208.810 47.448,209.272 46.333 C 209.367 46.104,209.551 45.657,209.681 45.339 C 210.037 44.467,212.091 40.363,212.640 39.428 C 214.692 35.929,219.132 33.725,219.161 36.190 C 219.164 36.432,218.671 37.594,218.065 38.773 C 215.596 43.578,215.338 44.199,215.336 45.333 C 215.333 46.510,216.413 47.502,217.692 47.498 C 219.004 47.495,221.188 45.853,223.181 43.372 L 223.752 42.660 223.765 43.955 C 223.813 48.949,229.310 48.921,233.085 43.907 L 233.970 42.731 234.821 42.718 C 235.732 42.704,236.468 42.469,237.218 41.953 C 237.867 41.506,237.922 41.661,237.507 42.769 C 236.228 46.189,237.838 48.516,240.486 47.075 C 241.272 46.647,243.690 44.312,244.366 43.328 C 244.644 42.925,244.649 42.942,244.658 44.210 C 244.685 48.210,247.900 48.904,251.269 45.637 L 252.500 44.444 252.500 44.978 C 252.500 46.775,254.327 47.978,255.935 47.240 C 256.818 46.835,259.730 43.862,260.743 42.332 C 261.198 41.645,261.779 40.822,262.035 40.504 C 262.486 39.941,262.614 39.503,262.392 39.281 C 262.276 39.165,261.798 39.653,261.360 40.333 C 259.825 42.714,256.767 46.000,256.086 46.000 C 254.471 46.000,255.223 43.152,258.146 38.201 C 258.432 37.716,258.667 37.287,258.667 37.249 C 258.667 37.210,259.106 36.445,259.642 35.548 C 260.179 34.651,260.864 33.467,261.165 32.917 C 261.466 32.367,261.901 31.579,262.131 31.167 C 262.360 30.754,262.773 30.004,263.048 29.500 C 263.323 28.996,263.604 28.508,263.673 28.417 C 263.742 28.325,263.956 27.969,264.149 27.625 C 264.342 27.281,264.663 26.719,264.862 26.375 C 267.234 22.275,267.248 22.167,265.413 22.167 L 264.338 22.167 263.890 22.875 C 263.643 23.265,263.144 24.146,262.779 24.833 C 262.415 25.521,261.766 26.646,261.337 27.333 C 260.908 28.021,260.362 29.012,260.123 29.536 C 259.885 30.061,259.472 30.811,259.205 31.203 C 258.938 31.596,258.467 32.404,258.157 33.000 C 256.746 35.715,255.816 36.775,255.699 35.801 C 255.481 33.971,252.391 33.929,249.667 35.720 C 248.649 36.389,247.332 37.811,246.243 39.417 C 242.541 44.875,240.522 46.786,239.732 45.579 C 239.172 44.724,239.880 42.779,242.433 38.167 C 242.763 37.571,243.374 36.446,243.792 35.667 C 244.461 34.419,245.126 33.187,247.254 29.250 C 247.551 28.700,248.094 27.688,248.461 27.000 C 248.828 26.313,249.510 25.078,249.976 24.258 C 251.012 22.433,250.928 22.167,249.316 22.167 C 248.421 22.167,248.321 22.206,247.944 22.708 C 247.553 23.230,245.667 26.438,245.667 26.582 C 245.667 26.620,245.431 27.049,245.143 27.534 C 244.855 28.020,244.453 28.717,244.250 29.083 C 244.046 29.450,243.670 30.125,243.414 30.583 C 242.284 32.608,241.847 33.435,240.327 36.428 C 238.892 39.254,238.596 39.719,237.649 40.635 C 235.585 42.630,233.902 42.882,234.824 41.057 C 238.725 33.336,230.213 30.845,225.850 38.432 C 224.170 41.353,220.456 45.671,219.393 45.938 C 217.893 46.314,217.984 44.518,219.636 41.125 C 220.295 39.774,220.833 38.570,220.833 38.450 C 220.833 38.331,220.902 38.162,220.986 38.075 C 221.332 37.715,221.363 36.106,221.035 35.508 C 220.211 34.006,216.661 33.851,215.486 35.266 C 215.108 35.722,215.020 35.307,215.367 34.702 C 215.562 34.362,216.184 33.258,216.748 32.250 C 217.313 31.242,217.949 30.117,218.162 29.750 C 218.375 29.383,218.774 28.671,219.049 28.167 C 219.323 27.662,219.604 27.175,219.673 27.083 C 219.902 26.778,221.043 24.732,221.792 23.282 C 222.389 22.127,220.106 21.607,219.275 22.708 M144.500 22.585 C 142.305 23.186,139.118 25.018,137.331 26.706 C 134.757 29.138,133.535 31.627,133.374 34.767 C 133.226 37.654,133.656 38.889,134.809 38.889 C 135.930 38.889,136.094 37.728,135.277 35.584 C 133.639 31.282,137.710 25.704,144.029 23.594 C 146.870 22.645,147.280 23.482,145.604 26.811 C 144.626 28.755,142.967 31.911,142.832 32.083 C 142.650 32.317,142.076 33.343,141.200 35.000 C 140.333 36.641,138.116 40.352,137.566 41.084 C 136.599 42.370,136.029 44.487,136.341 45.635 C 136.924 47.777,138.081 48.076,138.332 46.149 C 138.509 44.789,138.803 43.990,139.837 42.060 C 141.891 38.227,142.816 36.657,143.055 36.598 C 143.162 36.572,143.512 36.461,143.833 36.352 C 144.477 36.133,150.462 35.886,150.915 36.059 C 151.174 36.159,151.167 36.222,150.827 36.793 C 150.622 37.136,150.313 37.665,150.141 37.969 C 149.968 38.273,149.703 38.711,149.551 38.942 C 146.951 42.910,146.209 46.319,147.535 48.208 C 148.172 49.117,148.551 48.820,148.757 47.250 C 149.123 44.460,150.754 41.050,154.858 34.500 C 155.403 33.629,155.897 32.808,155.956 32.675 C 156.014 32.542,156.333 31.979,156.666 31.425 C 158.355 28.607,158.935 26.348,158.418 24.598 C 157.864 22.722,156.954 22.381,156.750 23.972 C 156.635 24.868,156.362 26.099,156.171 26.583 C 154.961 29.640,154.317 31.013,153.252 32.808 L 151.978 34.955 148.614 35.047 C 146.764 35.098,144.968 35.224,144.623 35.328 C 144.026 35.508,143.454 35.412,143.785 35.188 C 143.929 35.090,145.268 32.700,146.785 29.833 C 147.375 28.718,147.715 28.104,148.318 27.065 C 150.254 23.725,148.377 21.524,144.500 22.585 M84.773 30.439 C 83.757 31.456,85.086 32.719,86.228 31.821 C 86.776 31.390,86.786 30.937,86.258 30.409 C 85.732 29.883,85.320 29.892,84.773 30.439 M344.894 30.197 C 344.242 30.509,344.055 31.104,344.445 31.628 C 344.908 32.251,345.547 32.301,346.090 31.758 C 346.908 30.940,345.950 29.690,344.894 30.197 M77.598 34.917 C 77.742 35.489,77.585 36.022,76.802 37.626 C 76.033 39.202,75.831 39.414,75.839 38.635 C 75.862 36.503,77.256 33.555,77.598 34.917 M53.281 35.208 C 54.365 35.946,54.635 37.583,54.011 39.635 C 53.495 41.333,53.104 41.609,52.924 40.405 C 52.653 38.603,51.083 38.611,51.083 40.414 C 51.083 41.115,51.154 41.256,51.803 41.862 L 52.522 42.533 52.058 43.203 C 50.458 45.512,47.167 47.435,46.065 46.706 C 44.925 45.952,45.238 42.910,46.694 40.583 C 46.981 40.125,47.478 39.307,47.798 38.765 C 49.586 35.741,51.878 34.254,53.281 35.208 M164.817 35.075 C 166.004 35.689,166.334 38.119,165.514 40.217 C 165.070 41.353,164.816 41.363,164.578 40.253 C 164.290 38.907,163.255 38.642,162.814 39.800 C 162.540 40.522,162.777 41.244,163.505 41.901 C 164.369 42.682,164.394 42.606,162.708 44.307 C 160.596 46.440,159.299 47.112,157.952 46.774 C 156.704 46.460,156.753 43.470,158.045 41.170 C 160.872 36.134,163.059 34.166,164.817 35.075 M234.101 35.380 C 234.826 36.044,235.197 37.353,234.962 38.417 C 234.412 40.903,233.794 41.855,233.580 40.542 C 233.348 39.114,232.787 38.698,232.065 39.420 C 231.394 40.091,231.513 40.890,232.420 41.797 C 233.314 42.691,233.318 42.678,231.528 44.485 C 228.436 47.607,226.034 47.677,226.008 44.646 C 225.997 43.357,226.736 41.397,227.864 39.720 C 228.122 39.337,228.334 38.962,228.335 38.887 C 228.338 38.658,229.452 37.319,230.702 36.042 C 232.164 34.549,233.014 34.383,234.101 35.380 M102.909 35.270 C 104.360 35.827,103.832 38.350,101.362 42.667 C 99.047 46.714,96.035 47.822,95.581 44.795 C 95.091 41.526,100.589 34.380,102.909 35.270 M206.574 35.537 C 207.537 36.913,205.720 40.558,203.560 41.583 C 202.393 42.137,200.812 41.921,200.499 41.164 C 200.150 40.322,200.706 39.310,202.795 36.984 C 204.312 35.296,205.962 34.664,206.574 35.537 M254.657 35.491 C 255.534 36.368,255.316 38.006,253.980 40.583 C 251.462 45.438,249.113 47.508,247.628 46.180 C 246.260 44.957,247.371 41.137,249.939 38.232 C 250.110 38.039,250.647 37.427,251.131 36.873 C 252.459 35.354,253.940 34.774,254.657 35.491 M305.195 35.442 C 306.608 36.721,304.018 41.251,301.561 41.800 C 299.048 42.362,298.371 40.932,300.085 38.685 C 302.334 35.736,304.207 34.548,305.195 35.442 M316.924 35.576 C 319.063 37.715,312.425 48.169,310.053 46.398 C 308.159 44.984,309.630 40.710,313.321 36.907 C 315.031 35.145,316.099 34.750,316.924 35.576 M371.327 35.531 C 373.095 37.430,367.850 46.667,365.003 46.667 C 363.631 46.667,362.924 43.353,364.028 42.092 C 364.104 42.005,364.167 41.835,364.167 41.715 C 364.167 41.335,365.901 38.791,367.089 37.429 C 368.944 35.301,370.474 34.616,371.327 35.531 M364.833 51.681 C 364.833 51.780,364.537 52.404,364.176 53.067 C 363.814 53.730,363.197 54.905,362.805 55.678 C 360.347 60.527,354.575 61.979,354.615 57.739 C 354.637 55.376,357.252 53.513,362.667 52.002 C 363.079 51.887,363.604 51.733,363.833 51.660 C 364.439 51.466,364.833 51.474,364.833 51.681 " stroke="none" fill="#fcf9f8" fill-rule="evenodd"></path><path id="path1" d="M8.500 0.577 C 4.408 1.510,1.340 4.668,0.511 8.800 C 0.222 10.238,0.278 72.809,0.569 74.000 C 1.552 78.023,4.316 80.885,8.136 81.836 C 9.706 82.226,390.419 82.279,391.968 81.889 C 395.598 80.974,398.687 77.674,399.482 73.862 C 399.778 72.439,399.729 9.718,399.430 8.500 C 398.394 4.277,395.569 1.479,391.417 0.565 C 389.974 0.248,9.893 0.259,8.500 0.577 M45.432 21.153 C 47.500 22.152,48.399 24.740,47.549 27.250 C 47.362 27.800,47.128 28.550,47.027 28.917 C 46.582 30.541,45.415 31.612,44.578 31.164 C 43.698 30.693,43.995 29.618,45.406 28.167 C 48.268 25.224,46.506 20.463,43.183 22.158 C 42.566 22.473,41.000 24.048,41.000 24.353 C 41.000 24.436,40.860 24.822,40.690 25.210 C 39.922 26.960,39.822 29.215,40.351 32.843 C 41.727 42.274,39.847 46.493,33.293 48.689 C 24.912 51.497,18.001 42.315,22.125 33.850 C 24.796 28.368,33.084 28.130,35.193 33.475 C 36.839 37.643,33.522 43.486,30.542 41.668 C 29.888 41.270,29.845 41.000,30.436 41.000 C 32.773 41.000,34.996 36.745,33.979 34.216 C 33.068 31.950,32.374 31.192,30.667 30.599 C 24.442 28.437,19.478 36.704,22.889 43.551 C 25.388 48.569,31.053 49.577,35.501 45.796 C 37.927 43.734,38.690 40.792,38.171 35.500 C 37.453 28.185,37.450 28.125,37.737 26.735 C 38.575 22.678,42.578 19.774,45.432 21.153 M288.897 21.698 C 290.809 22.249,292.030 24.179,291.595 25.959 C 290.661 29.775,288.947 32.257,287.941 31.250 C 287.401 30.711,287.775 29.681,289.000 28.333 C 291.635 25.435,291.085 22.728,287.871 22.772 C 279.391 22.889,270.831 37.466,275.192 44.362 C 278.811 50.084,285.619 46.620,290.811 36.415 C 292.510 33.075,293.238 31.714,295.087 28.417 C 298.714 21.951,298.552 22.167,299.775 22.167 C 301.425 22.167,301.545 22.945,300.175 24.750 C 300.056 24.906,299.728 25.504,298.228 28.292 C 297.895 28.910,297.417 29.792,297.165 30.250 C 296.914 30.708,296.370 31.722,295.956 32.502 C 295.542 33.283,295.020 34.258,294.795 34.669 C 294.570 35.080,294.062 36.017,293.667 36.750 C 293.271 37.483,292.761 38.421,292.533 38.833 C 290.145 43.160,289.568 44.913,290.276 45.695 C 291.116 46.624,292.970 44.858,296.430 39.833 C 298.975 36.137,301.123 34.518,303.679 34.368 C 305.786 34.244,306.500 34.882,306.500 36.886 C 306.500 39.893,303.712 43.000,301.013 43.000 C 300.177 43.000,299.282 42.616,298.855 42.074 C 298.286 41.350,297.788 42.117,297.582 44.035 C 297.134 48.217,301.884 47.853,305.429 43.434 C 305.789 42.985,306.158 42.533,306.250 42.430 C 306.683 41.942,307.521 40.796,308.334 39.583 C 310.668 36.099,312.848 34.524,315.440 34.450 C 317.091 34.403,317.489 34.653,318.000 36.062 L 318.174 36.541 318.819 35.542 C 319.795 34.032,320.389 33.746,321.642 34.183 C 322.379 34.440,322.328 34.663,320.984 37.014 C 317.380 43.322,316.601 45.752,318.115 45.968 C 319.202 46.124,322.645 42.100,325.005 37.917 C 327.503 33.487,327.339 33.674,328.737 33.669 C 329.707 33.666,330.056 34.044,329.752 34.770 C 329.472 35.441,329.587 35.463,330.631 34.939 C 332.901 33.802,334.903 34.148,335.593 35.798 C 335.988 36.744,335.677 37.801,333.982 41.278 C 332.408 44.507,332.290 46.000,333.611 46.000 C 334.576 46.000,338.684 41.301,340.199 38.463 C 342.324 34.484,342.886 33.870,344.223 34.071 C 345.398 34.247,345.465 34.746,344.505 36.167 C 343.417 37.778,340.878 42.813,340.583 43.945 C 340.232 45.294,340.685 46.156,341.623 45.922 C 342.539 45.694,346.018 41.422,347.623 38.556 C 350.278 33.813,350.394 33.667,351.494 33.667 C 352.643 33.667,353.064 34.024,352.763 34.745 C 352.471 35.444,352.586 35.577,353.148 35.191 C 355.575 33.523,358.667 34.247,358.667 36.483 C 358.667 37.330,357.986 39.416,357.322 40.602 C 357.162 40.888,356.960 41.263,356.873 41.435 C 356.786 41.608,356.596 41.978,356.452 42.257 C 355.159 44.752,355.621 46.687,357.270 45.682 C 358.277 45.068,360.919 42.030,362.713 39.422 C 364.177 37.297,365.811 35.702,367.250 34.996 C 369.590 33.848,372.333 34.341,372.333 35.909 C 372.333 36.645,372.600 36.496,373.238 35.404 C 373.974 34.147,374.191 34.000,375.310 34.000 C 377.038 34.000,377.010 34.202,374.749 38.083 C 374.269 38.908,373.217 40.858,372.412 42.417 C 368.808 49.393,368.931 49.059,370.304 48.134 C 373.111 46.244,374.812 44.523,377.715 40.633 C 379.249 38.578,379.793 38.777,378.348 40.863 C 377.883 41.534,377.189 42.533,376.806 43.083 C 375.274 45.285,371.923 48.192,369.195 49.688 C 368.583 50.024,368.347 50.323,367.636 51.667 C 363.239 59.981,361.860 61.384,358.083 61.388 C 354.333 61.392,352.486 58.732,354.210 55.808 C 354.766 54.864,357.165 52.833,357.724 52.833 C 357.779 52.833,358.231 52.647,358.730 52.419 C 359.644 52.001,361.546 51.381,363.083 51.000 C 365.437 50.416,365.745 50.230,366.347 49.027 C 366.653 48.416,367.196 47.407,367.554 46.783 C 368.317 45.456,368.284 45.278,367.424 46.066 C 364.237 48.985,360.997 47.930,361.202 44.040 L 361.277 42.602 360.353 43.676 C 357.858 46.574,356.674 47.410,355.055 47.414 C 351.980 47.422,352.126 44.556,355.492 38.848 C 356.947 36.379,356.890 35.055,355.333 35.204 C 353.503 35.380,351.388 37.095,349.978 39.545 C 349.273 40.771,347.672 44.017,347.083 45.417 C 346.271 47.347,345.984 47.667,345.065 47.667 C 343.413 47.667,343.219 47.283,344.015 45.589 C 344.541 44.470,344.338 44.507,343.064 45.763 C 339.815 48.964,337.174 47.628,338.095 43.250 C 338.189 42.800,338.102 42.859,337.230 43.833 C 333.951 47.498,331.868 48.392,330.383 46.771 C 329.250 45.535,329.621 44.205,332.740 38.333 C 334.245 35.501,333.394 34.376,330.738 35.685 C 329.518 36.287,327.000 38.961,327.000 39.655 C 327.000 39.753,326.944 39.833,326.875 39.834 C 326.749 39.834,324.797 43.762,323.854 45.912 C 323.160 47.495,322.988 47.667,322.096 47.667 C 320.759 47.667,320.059 47.060,320.642 46.408 C 320.763 46.272,321.164 45.335,321.458 44.500 C 321.506 44.362,320.917 44.857,320.148 45.600 C 317.439 48.215,315.185 48.087,314.727 45.292 C 314.597 44.500,314.650 44.484,313.441 45.673 C 310.226 48.834,306.833 48.128,306.833 44.298 C 306.833 42.951,306.858 42.961,305.963 43.958 C 304.539 45.544,303.567 46.450,302.833 46.877 C 299.153 49.015,295.513 47.699,295.189 44.112 L 295.083 42.945 294.424 43.764 C 293.296 45.167,291.598 46.776,290.837 47.165 C 288.930 48.137,286.874 46.522,287.474 44.522 C 287.869 43.203,287.749 42.893,287.125 43.619 C 283.770 47.526,280.422 48.865,276.750 47.768 C 272.914 46.621,270.671 42.504,271.501 38.133 C 272.439 33.197,274.003 30.209,277.576 26.524 C 281.556 22.421,285.530 20.727,288.897 21.698 M69.898 22.421 C 70.216 22.740,70.198 22.787,68.744 25.333 C 68.090 26.479,67.007 28.467,66.339 29.750 C 65.670 31.033,65.067 32.158,64.998 32.250 C 64.930 32.342,64.555 33.017,64.164 33.750 C 63.774 34.483,63.254 35.458,63.008 35.917 C 58.611 44.120,58.203 45.228,59.353 45.844 C 60.432 46.421,64.938 41.354,65.814 38.579 C 66.198 37.359,66.688 36.006,67.121 34.964 C 67.506 34.038,68.986 33.699,69.776 34.355 C 70.123 34.643,70.041 35.732,69.600 36.703 C 67.329 41.704,66.414 45.266,67.161 46.208 C 68.129 47.430,70.127 46.303,72.943 42.948 C 74.625 40.943,74.665 40.839,74.086 40.005 C 72.539 37.772,75.249 32.946,77.557 33.823 C 78.783 34.290,78.274 36.986,76.479 39.526 C 75.410 41.039,77.873 41.770,79.239 40.345 C 79.478 40.095,79.980 39.297,80.355 38.571 C 82.582 34.260,83.468 33.429,85.000 34.220 C 85.547 34.502,85.489 34.760,84.477 36.536 C 80.979 42.670,80.144 44.813,80.919 45.669 C 81.714 46.547,82.726 45.700,85.853 41.539 C 86.949 40.081,90.735 32.957,90.525 32.747 C 90.481 32.703,89.926 32.667,89.293 32.667 C 87.380 32.667,87.730 32.101,89.684 32.036 L 91.114 31.988 92.669 29.202 C 93.524 27.670,94.448 26.004,94.722 25.500 C 94.997 24.996,95.565 24.058,95.986 23.417 L 96.750 22.250 97.727 22.199 C 99.572 22.104,99.609 22.382,98.090 24.917 C 97.460 25.968,97.032 26.754,94.919 30.750 L 94.302 31.917 95.776 32.000 C 97.967 32.124,97.897 32.563,95.676 32.632 C 93.907 32.686,93.852 32.713,93.277 33.812 C 93.050 34.247,92.695 34.898,92.490 35.260 C 88.160 42.870,87.098 46.000,88.846 46.000 C 89.754 46.000,92.223 43.223,94.997 39.083 C 96.837 36.338,99.121 34.682,101.424 34.422 C 103.045 34.239,104.333 35.005,104.333 36.150 C 104.333 36.564,104.666 36.277,105.272 35.342 C 106.126 34.023,106.750 33.756,107.975 34.183 C 108.759 34.456,108.713 34.587,106.444 38.500 C 103.796 43.068,103.073 45.772,104.449 45.968 C 105.418 46.107,108.249 42.858,112.116 37.167 C 114.395 33.813,117.503 33.021,119.497 35.286 C 120.157 36.036,120.265 36.376,120.187 37.475 C 120.145 38.077,119.564 39.102,119.180 39.252 C 118.685 39.446,118.636 39.029,119.067 38.294 C 120.270 36.241,118.211 34.135,115.932 35.088 C 114.105 35.851,114.268 38.121,116.352 40.943 C 117.607 42.640,118.109 44.201,117.758 45.308 C 117.335 46.640,121.029 43.159,123.000 40.367 C 123.494 39.668,123.833 39.506,123.833 39.969 C 123.833 40.667,120.495 44.492,118.489 46.092 C 115.099 48.797,112.104 49.045,109.748 46.817 C 108.907 46.021,108.625 45.431,108.937 45.119 C 108.994 45.062,109.537 45.525,110.145 46.149 C 110.928 46.952,111.414 47.314,111.813 47.391 C 115.553 48.115,117.080 45.479,114.565 42.642 C 113.253 41.164,112.754 40.353,112.475 39.250 C 112.359 38.792,112.241 38.385,112.214 38.346 C 112.147 38.252,111.977 38.477,109.889 41.417 C 107.972 44.116,105.525 46.727,104.435 47.235 C 102.884 47.959,101.000 46.782,101.000 45.090 C 101.000 44.511,100.804 44.558,100.145 45.295 C 96.940 48.881,93.436 48.403,93.174 44.345 L 93.083 42.939 92.593 43.595 C 91.657 44.847,89.809 46.627,88.972 47.082 C 87.008 48.151,84.908 46.641,85.483 44.573 C 85.858 43.222,85.739 43.019,85.056 43.845 C 82.173 47.332,80.174 48.252,78.696 46.774 C 77.972 46.050,77.904 44.474,78.521 42.726 C 78.955 41.496,78.937 41.452,78.093 41.685 C 77.361 41.887,76.468 41.763,75.878 41.376 C 75.410 41.069,75.262 41.191,73.801 43.083 C 70.982 46.734,67.874 48.556,66.228 47.523 C 65.008 46.757,64.322 45.021,64.679 43.603 C 65.117 41.865,64.842 41.681,63.861 43.056 C 62.167 45.431,59.711 47.500,58.585 47.500 C 56.739 47.500,55.891 45.824,56.601 43.583 C 56.746 43.125,56.924 42.512,56.995 42.221 L 57.126 41.693 56.140 42.193 C 55.421 42.559,54.913 42.696,54.260 42.702 L 53.366 42.710 52.260 44.101 C 48.747 48.520,44.031 48.906,43.169 44.845 C 42.837 43.280,43.292 41.754,44.962 38.833 C 49.468 30.951,58.016 32.912,54.245 40.963 C 53.342 42.892,54.596 42.785,56.941 40.733 C 57.899 39.893,58.080 39.609,59.751 36.293 C 60.734 34.344,61.596 32.675,61.668 32.583 C 61.793 32.423,61.952 32.140,63.167 29.917 C 63.914 28.547,64.384 27.704,64.836 26.917 C 65.046 26.550,65.426 25.859,65.680 25.382 C 65.934 24.904,66.483 23.986,66.901 23.340 L 67.660 22.167 68.651 22.167 C 69.319 22.167,69.726 22.250,69.898 22.421 M221.741 22.490 C 222.065 22.848,222.106 22.718,221.056 24.667 C 220.433 25.821,219.835 26.867,219.673 27.083 C 219.604 27.175,219.323 27.662,219.049 28.167 C 218.774 28.671,218.375 29.383,218.162 29.750 C 217.949 30.117,217.313 31.242,216.748 32.250 C 216.184 33.258,215.562 34.362,215.367 34.702 C 215.020 35.307,215.108 35.722,215.486 35.266 C 216.661 33.851,220.211 34.006,221.035 35.508 C 221.363 36.106,221.332 37.715,220.986 38.075 C 220.902 38.162,220.833 38.331,220.833 38.450 C 220.833 38.570,220.295 39.774,219.636 41.125 C 217.984 44.518,217.893 46.314,219.393 45.938 C 220.456 45.671,224.170 41.353,225.850 38.432 C 230.213 30.845,238.725 33.336,234.824 41.057 C 233.902 42.882,235.585 42.630,237.649 40.635 C 238.596 39.719,238.892 39.254,240.327 36.428 C 241.847 33.435,242.284 32.608,243.414 30.583 C 243.670 30.125,244.046 29.450,244.250 29.083 C 244.453 28.717,244.855 28.020,245.143 27.534 C 245.431 27.049,245.667 26.620,245.667 26.582 C 245.667 26.438,247.553 23.230,247.944 22.708 C 248.321 22.206,248.421 22.167,249.316 22.167 C 250.928 22.167,251.012 22.433,249.976 24.258 C 249.510 25.078,248.828 26.313,248.461 27.000 C 248.094 27.688,247.551 28.700,247.254 29.250 C 245.126 33.187,244.461 34.419,243.792 35.667 C 243.374 36.446,242.763 37.571,242.433 38.167 C 239.880 42.779,239.172 44.724,239.732 45.579 C 240.333 46.497,241.227 45.951,243.275 43.413 C 244.872 41.434,244.901 41.395,246.243 39.417 C 247.332 37.811,248.649 36.389,249.667 35.720 C 252.391 33.929,255.481 33.971,255.699 35.801 C 255.816 36.775,256.746 35.715,258.157 33.000 C 258.467 32.404,258.938 31.596,259.205 31.203 C 259.472 30.811,259.885 30.061,260.123 29.536 C 260.362 29.012,260.908 28.021,261.337 27.333 C 261.766 26.646,262.415 25.521,262.779 24.833 C 263.144 24.146,263.643 23.265,263.890 22.875 L 264.338 22.167 265.413 22.167 C 267.248 22.167,267.234 22.275,264.862 26.375 C 264.663 26.719,264.342 27.281,264.149 27.625 C 263.956 27.969,263.742 28.325,263.673 28.417 C 263.604 28.508,263.323 28.996,263.048 29.500 C 262.773 30.004,262.360 30.754,262.131 31.167 C 261.901 31.579,261.466 32.367,261.165 32.917 C 260.864 33.467,260.179 34.651,259.642 35.548 C 259.106 36.445,258.667 37.210,258.667 37.249 C 258.667 37.287,258.432 37.716,258.146 38.201 C 255.223 43.152,254.471 46.000,256.086 46.000 C 256.767 46.000,259.825 42.714,261.360 40.333 C 261.798 39.653,262.276 39.165,262.392 39.281 C 262.614 39.503,262.486 39.941,262.035 40.504 C 261.779 40.822,261.198 41.645,260.743 42.332 C 259.730 43.862,256.818 46.835,255.935 47.240 C 254.327 47.978,252.500 46.775,252.500 44.978 L 252.500 44.444 251.269 45.637 C 247.900 48.904,244.685 48.210,244.658 44.210 C 244.649 42.942,244.644 42.925,244.366 43.328 C 243.690 44.312,241.272 46.647,240.486 47.075 C 237.838 48.516,236.228 46.189,237.507 42.769 C 237.922 41.661,237.867 41.506,237.218 41.953 C 236.468 42.469,235.732 42.704,234.821 42.718 L 233.970 42.731 233.085 43.907 C 229.310 48.921,223.813 48.949,223.765 43.955 L 223.752 42.660 223.181 43.372 C 221.188 45.853,219.004 47.495,217.692 47.498 C 216.413 47.502,215.333 46.510,215.336 45.333 C 215.338 44.199,215.596 43.578,218.065 38.773 C 218.671 37.594,219.164 36.432,219.161 36.190 C 219.132 33.725,214.692 35.929,212.640 39.428 C 212.091 40.363,210.037 44.467,209.681 45.339 C 209.551 45.657,209.367 46.104,209.272 46.333 C 208.810 47.448,208.532 47.667,207.572 47.667 C 206.704 47.667,205.864 47.227,206.049 46.869 C 206.083 46.804,206.244 46.450,206.407 46.083 C 206.570 45.717,206.808 45.198,206.936 44.931 C 207.318 44.134,207.082 44.241,205.886 45.408 C 202.634 48.581,198.464 48.740,196.880 45.751 C 196.667 45.347,196.544 44.382,196.504 42.775 C 196.502 42.697,195.958 43.214,195.295 43.923 C 191.848 47.614,188.734 48.971,185.919 48.008 C 185.049 47.711,183.333 46.085,183.333 45.558 C 183.333 44.969,183.538 45.069,184.693 46.222 C 185.414 46.942,185.929 47.312,186.313 47.389 C 190.173 48.154,191.574 45.335,188.825 42.333 C 187.789 41.202,187.053 39.972,186.911 39.136 C 186.748 38.167,186.622 38.226,185.509 39.795 C 184.942 40.595,184.371 41.400,184.240 41.583 C 181.399 45.579,179.347 47.500,177.920 47.500 C 176.828 47.500,175.922 46.785,175.708 45.754 C 175.537 44.933,175.345 44.876,174.731 45.463 C 170.874 49.150,166.817 47.638,168.322 43.075 C 168.732 41.832,168.672 41.761,167.654 42.272 C 167.090 42.555,166.514 42.700,165.889 42.714 C 165.091 42.733,164.924 42.795,164.689 43.160 C 161.502 48.110,156.120 49.197,154.937 45.130 C 154.425 43.367,155.543 40.132,157.608 37.405 C 162.582 30.836,169.187 33.683,165.911 40.983 C 164.485 44.160,168.891 41.398,170.578 38.057 C 172.466 34.318,173.095 33.727,174.708 34.175 C 175.507 34.397,175.504 34.629,174.685 36.031 C 173.310 38.385,171.169 42.492,170.874 43.341 C 169.309 47.857,174.058 46.744,176.240 42.083 C 179.511 35.093,180.435 33.811,181.984 34.109 C 183.215 34.346,183.202 34.506,181.743 37.098 C 178.396 43.046,177.761 44.680,178.426 45.630 C 179.269 46.832,181.171 44.957,185.659 38.500 C 187.739 35.508,188.711 34.568,190.136 34.172 C 193.388 33.269,196.089 36.559,194.003 38.882 C 193.337 39.623,192.892 39.286,193.483 38.487 C 194.573 37.014,193.410 34.836,191.533 34.834 C 188.665 34.831,188.432 38.537,191.125 41.309 C 191.905 42.112,192.566 44.157,192.309 44.970 C 191.669 46.990,195.752 43.056,198.050 39.438 C 201.584 33.874,207.833 32.339,207.833 37.035 C 207.833 41.152,202.556 44.644,200.179 42.099 C 199.418 41.285,198.973 42.106,198.939 44.387 L 198.917 45.857 199.539 46.428 C 201.166 47.922,204.259 46.517,207.087 42.998 C 208.917 40.721,209.462 39.934,210.545 38.000 C 212.268 34.924,212.357 34.772,212.686 34.308 C 212.859 34.064,213.000 33.824,213.000 33.774 C 213.000 33.723,213.386 33.022,213.857 32.216 C 214.329 31.410,214.993 30.225,215.334 29.583 C 215.675 28.942,216.199 28.004,216.500 27.500 C 216.800 26.996,217.456 25.833,217.956 24.917 C 219.379 22.310,219.515 22.167,220.566 22.167 C 221.228 22.167,221.522 22.248,221.741 22.490 M148.020 22.697 C 149.423 23.499,149.525 24.983,148.318 27.065 C 147.715 28.104,147.375 28.718,146.785 29.833 C 145.268 32.700,143.929 35.090,143.785 35.188 C 143.454 35.412,144.026 35.508,144.623 35.328 C 144.968 35.224,146.764 35.098,148.614 35.047 L 151.978 34.955 153.252 32.808 C 154.317 31.013,154.961 29.640,156.171 26.583 C 156.362 26.099,156.635 24.868,156.750 23.972 C 156.954 22.381,157.864 22.722,158.418 24.598 C 158.935 26.348,158.355 28.607,156.666 31.425 C 156.333 31.979,156.014 32.542,155.956 32.675 C 155.897 32.808,155.403 33.629,154.858 34.500 C 150.754 41.050,149.123 44.460,148.757 47.250 C 148.551 48.820,148.172 49.117,147.535 48.208 C 146.209 46.319,146.951 42.910,149.551 38.942 C 149.703 38.711,149.968 38.273,150.141 37.969 C 150.313 37.665,150.622 37.136,150.827 36.793 C 151.167 36.222,151.174 36.159,150.915 36.059 C 150.462 35.886,144.477 36.133,143.833 36.352 C 143.512 36.461,143.162 36.572,143.055 36.598 C 142.816 36.657,141.891 38.227,139.837 42.060 C 138.803 43.990,138.509 44.789,138.332 46.149 C 138.081 48.076,136.924 47.777,136.341 45.635 C 136.029 44.487,136.599 42.370,137.566 41.084 C 138.116 40.352,140.333 36.641,141.200 35.000 C 142.076 33.343,142.650 32.317,142.832 32.083 C 142.967 31.911,144.626 28.755,145.604 26.811 C 147.280 23.482,146.870 22.645,144.029 23.594 C 137.710 25.704,133.639 31.282,135.277 35.584 C 136.094 37.728,135.930 38.889,134.809 38.889 C 133.656 38.889,133.226 37.654,133.374 34.767 C 133.630 29.782,137.154 25.576,143.250 22.978 C 144.741 22.342,147.151 22.201,148.020 22.697 M86.258 30.409 C 86.786 30.937,86.776 31.390,86.228 31.821 C 85.086 32.719,83.757 31.456,84.773 30.439 C 85.320 29.892,85.732 29.883,86.258 30.409 M346.107 30.393 C 346.537 30.823,346.531 31.317,346.090 31.758 C 345.547 32.301,344.908 32.251,344.445 31.628 C 343.721 30.655,345.240 29.526,346.107 30.393 M77.041 34.708 C 76.292 35.647,75.368 39.474,75.982 39.095 C 76.179 38.973,77.443 36.374,77.588 35.792 C 77.804 34.929,77.440 34.209,77.041 34.708 M49.816 36.306 C 49.027 37.116,48.119 38.223,47.798 38.765 C 47.478 39.307,46.981 40.125,46.694 40.583 C 45.238 42.910,44.925 45.952,46.065 46.706 C 47.167 47.435,50.458 45.512,52.058 43.203 L 52.522 42.533 51.803 41.862 C 51.154 41.256,51.083 41.115,51.083 40.414 C 51.083 38.611,52.653 38.603,52.924 40.405 C 53.104 41.609,53.495 41.333,54.011 39.635 C 55.321 35.328,52.752 33.291,49.816 36.306 M161.483 36.316 C 160.219 37.624,159.335 38.872,158.045 41.170 C 156.753 43.470,156.704 46.460,157.952 46.774 C 159.299 47.112,160.596 46.440,162.708 44.307 C 164.394 42.606,164.369 42.682,163.505 41.901 C 162.777 41.244,162.540 40.522,162.814 39.800 C 163.255 38.642,164.290 38.907,164.578 40.253 C 164.816 41.363,165.070 41.353,165.514 40.217 C 167.252 35.768,164.545 33.147,161.483 36.316 M230.702 36.042 C 229.452 37.319,228.338 38.658,228.335 38.887 C 228.334 38.962,228.122 39.337,227.864 39.720 C 223.829 45.717,226.660 49.399,231.528 44.485 C 233.318 42.678,233.314 42.691,232.420 41.797 C 231.513 40.890,231.394 40.091,232.065 39.420 C 232.787 38.698,233.348 39.114,233.580 40.542 C 233.794 41.855,234.412 40.903,234.962 38.417 C 235.664 35.240,232.962 33.733,230.702 36.042 M101.228 35.517 C 100.587 35.829,99.099 37.347,97.896 38.917 C 93.591 44.537,95.828 49.758,100.210 44.315 C 101.807 42.331,103.667 38.537,103.667 37.262 C 103.667 35.332,102.835 34.737,101.228 35.517 M204.324 35.637 C 203.173 36.368,200.620 39.379,200.396 40.272 C 199.883 42.317,202.956 42.481,204.952 40.515 C 206.489 39.002,207.286 36.554,206.574 35.537 C 206.198 35.000,205.262 35.041,204.324 35.637 M252.715 35.524 C 252.329 35.711,251.616 36.318,251.131 36.873 C 250.647 37.427,250.110 38.039,249.939 38.232 C 247.371 41.137,246.260 44.957,247.628 46.180 C 249.113 47.508,251.462 45.438,253.980 40.583 C 255.982 36.722,255.362 34.240,252.715 35.524 M303.205 35.500 C 302.041 36.210,299.562 39.093,299.160 40.206 C 298.552 41.887,300.972 42.504,302.919 41.165 C 306.123 38.961,306.396 33.555,303.205 35.500 M315.061 35.423 C 313.213 36.233,309.768 41.091,309.321 43.516 C 308.628 47.275,311.505 47.565,314.152 44.003 C 317.853 39.024,318.389 33.964,315.061 35.423 M368.982 35.642 C 367.698 36.457,364.167 40.910,364.167 41.715 C 364.167 41.835,364.104 42.005,364.028 42.092 C 362.924 43.353,363.631 46.667,365.003 46.667 C 367.850 46.667,373.095 37.430,371.327 35.531 C 370.836 35.005,369.919 35.048,368.982 35.642 M363.833 51.660 C 363.604 51.733,363.079 51.887,362.667 52.002 C 357.252 53.513,354.637 55.376,354.615 57.739 C 354.575 61.979,360.347 60.527,362.805 55.678 C 363.197 54.905,363.814 53.730,364.176 53.067 C 365.056 51.453,365.015 51.282,363.833 51.660 " stroke="none" fill="#fc847c" fill-rule="evenodd"></path></g></svg>